<?xml version="1.0" encoding="UTF-8" standalone="no"?>
<svg
   id="svg863"
   version="1.1"
   viewBox="0 0 346.9214 150.59092"
   height="569.16254"
   width="1311.1991"
   sodipodi:docname="logo.svg"
   inkscape:version="1.2.2 (b0a8486541, 2022-12-01)"
   xmlns:inkscape="http://www.inkscape.org/namespaces/inkscape"
   xmlns:sodipodi="http://sodipodi.sourceforge.net/DTD/sodipodi-0.dtd"
   xmlns="http://www.w3.org/2000/svg"
   xmlns:svg="http://www.w3.org/2000/svg"
   xmlns:rdf="http://www.w3.org/1999/02/22-rdf-syntax-ns#"
   xmlns:cc="http://creativecommons.org/ns#"
   xmlns:dc="http://purl.org/dc/elements/1.1/">
  <sodipodi:namedview
     pagecolor="#ffffff"
     bordercolor="#666666"
     borderopacity="1"
     objecttolerance="10"
     gridtolerance="10"
     guidetolerance="10"
     inkscape:pageopacity="0"
     inkscape:pageshadow="2"
     inkscape:window-width="1920"
     inkscape:window-height="1143"
     id="namedview902"
     showgrid="false"
     fit-margin-top="100"
     fit-margin-left="0"
     fit-margin-right="0"
     fit-margin-bottom="100"
     inkscape:zoom="0.56118744"
     inkscape:cx="767.12337"
     inkscape:cy="514.08848"
     inkscape:window-x="0"
     inkscape:window-y="29"
     inkscape:window-maximized="1"
     inkscape:current-layer="text842"
     units="px"
     inkscape:pagecheckerboard="0"
     inkscape:showpageshadow="2"
     inkscape:deskcolor="#d1d1d1" />
  <defs
     id="defs857" />
  <metadata
     id="metadata860">
    <rdf:RDF>
      <cc:Work
         rdf:about="">
        <dc:format>image/svg+xml</dc:format>
        <dc:type
           rdf:resource="http://purl.org/dc/dcmitype/StillImage" />
      </cc:Work>
    </rdf:RDF>
  </metadata>
  <g
     aria-label="OPENSchool"
     transform="matrix(1.9021387,0,0,1.9021387,-936.75971,-2680.9683)"
     style="font-style:normal;font-weight:normal;font-size:40px;line-height:1.25;font-family:sans-serif;letter-spacing:0px;word-spacing:0px;fill:#1a1a1a;fill-opacity:1;stroke:none"
     id="flowRoot966">
    <g
       aria-label="john"
       style="font-style:normal;font-weight:normal;font-size:70.0083847px;line-height:1.25;font-family:sans-serif;letter-spacing:0px;word-spacing:0px;fill:#307f96;fill-opacity:1;stroke:none;stroke-width:1.75020969"
       id="text842">
      <path
         d="m 572.09059,1448.2275 q 0.6378,0 1.18449,0 0.5467,0 1.09339,-0.1823 3.37126,-0.6378 6.65141,-1.1845 3.37126,-0.6378 6.83364,-1.2756 0.54669,-0.1822 1.18449,-0.091 0.63781,0.091 1.27562,0.2734 0.72892,0.2733 0.72892,0.9111 0.0911,0.6378 -0.63781,1.0023 -0.36446,0.2733 -0.91115,0.4555 -0.45558,0.091 -0.91115,0.1823 -4.00907,0.82 -8.01814,1.5489 -3.91795,0.6378 -7.92702,1.3668 -1.27561,0.2733 -2.09565,0.9111 -0.72892,0.6378 -1.36673,1.8223 -2.73346,5.1936 -5.74026,10.2049 -2.91568,4.9202 -6.46918,9.6582 -2.46011,3.3713 -5.74025,6.6514 -2.73346,2.8246 -6.19584,4.2825 -3.46237,1.4578 -7.38033,2.0956 -3.82684,0.6378 -7.65367,0 -3.73573,-0.5467 -7.38033,-1.9134 -4.92023,-1.9134 -9.47599,-4.4647 -4.55575,-2.5512 -8.65594,-6.1047 -2.46011,-2.0045 -3.73572,-4.738 -1.82231,-3.9179 1.73119,-6.378 1.8223,-1.2756 4.1913,-2.0957 4.19129,-1.5489 8.47371,-2.6423 4.28241,-1.0934 8.65594,-1.8223 8.83818,-1.6401 17.58524,-3.0979 8.74705,-1.4579 17.67634,-3.0068 1.82231,-0.4556 3.73573,-0.6378 1.91342,-0.2734 3.82684,-0.6379 1.00226,-0.1822 1.73118,-0.5466 0.72893,-0.4556 1.1845,-1.4579 0.63781,-1.4578 1.45784,-3.4624 0.91116,-2.0956 1.82231,-4.1913 1.00227,-2.1867 1.8223,-4.1913 0.91115,-2.0956 1.45785,-3.6446 0.45557,-1.2756 0.54669,-2.5512 0.0911,-1.3667 0.0911,-2.6423 0,-2.6424 -2.91568,-3.1891 -1.91342,-0.2733 -3.73573,0 -2.82457,0.729 -5.55802,1.6401 -2.73346,0.82 -5.55803,1.6401 -2.91569,1.0022 -5.74026,2.0045 -2.82457,1.0023 -5.74026,2.0045 -0.18223,0.091 -0.45557,0.1823 -0.18223,0.091 -0.36446,0.091 -0.36446,-0.091 -0.82004,-0.091 -0.45558,-0.091 -0.54669,-0.2734 -0.45558,-0.5467 -0.0911,-0.9111 0.36446,-0.3645 0.82004,-0.5467 0.72892,-0.5467 1.36673,-0.6378 2.27788,-0.8201 4.55576,-1.7312 2.36899,-0.9112 4.73799,-1.7312 2.73345,-0.9111 5.46691,-1.8223 2.73346,-0.9112 5.55803,-1.7312 1.18449,-0.4556 2.36899,-0.5467 1.1845,-0.1822 2.369,-0.2733 3.82684,-0.091 5.64914,2.2779 1.91342,2.2778 1.36673,6.1958 -0.18223,1.1845 -0.82004,2.9157 -0.54669,1.64 -1.27561,3.4624 -0.63781,1.7311 -1.36673,3.3712 -0.63781,1.6401 -1.09338,2.8246 -0.63781,1.5489 -1.36673,3.0979 -0.72892,1.549 -1.45784,3.3713 z m -5.28468,4.1913 q -2.00454,0.1822 -3.00681,0.3644 -8.20036,1.2756 -16.2185,2.6424 -8.01814,1.2756 -16.12739,2.7334 -5.01134,0.9112 -10.02267,1.9134 -5.01134,1.0023 -9.93156,2.4601 -1.64007,0.5467 -3.37126,1.1845 -1.64007,0.5467 -3.18903,1.2757 -3.37127,1.3667 -1.27562,4.4646 0.63781,0.9112 1.27562,1.7312 0.72892,0.7289 1.64007,1.4578 4.55576,3.7358 9.5671,6.4692 5.01133,2.7335 10.75159,4.2824 10.29602,3.0068 19.58977,-2.4601 2.36899,-1.5489 4.28241,-3.5535 1.91342,-2.0956 3.73572,-4.4646 3.18904,-4.4647 6.01361,-9.1115 2.91568,-4.738 5.55802,-9.6582 0.18223,-0.3645 0.27335,-0.729 0.18223,-0.3644 0.45558,-1.0022 z"
         style="font-style:normal;font-weight:normal;font-size:91.1152px;line-height:1.25;font-family:Thesignature;-inkscape-font-specification:Thesignature;letter-spacing:0px;word-spacing:0px;fill:#274b75;fill-opacity:1;stroke:none;stroke-width:2.27788"
         id="path1791" />
      <path
         d="m 606.80553,1449.5031 q 1.09338,-0.1823 2.09565,-0.2734 1.00227,-0.1822 2.00453,-0.3644 0.72892,-0.1823 1.82231,-0.2734 1.09338,-0.091 1.91342,-0.2733 0.45557,0 0.6378,0 0.27335,0 0.72892,0.1822 0.27335,0.1822 0.45558,0.5467 0.27334,0.2733 0.18223,0.6378 0,0.1822 -0.36446,0.4556 -0.36446,0.2733 -0.54669,0.2733 -0.91115,0.1823 -1.73119,0.3645 -0.72892,0.091 -1.64007,0.1822 -1.73119,0.3645 -3.46238,0.6378 -1.64008,0.1823 -3.28015,0.5467 -1.00227,0.1822 -1.64007,0.9112 -1.91342,1.8223 -3.18903,3.0068 -1.1845,1.1845 -2.91569,1.7312 -1.27561,0.3644 -2.369,0.1822 -1.09338,-0.2734 -1.64007,-1.2756 -0.54669,-1.0023 -0.18223,-2.7335 0.36446,-1.8223 2.00453,-4.4646 1.1845,-1.8223 2.73346,-3.2802 1.64007,-1.5489 3.46238,-3.0068 0.72892,-0.5467 1.54896,-0.9111 0.82003,-0.4556 1.91342,-0.5467 1.54895,-0.1822 2.36899,0.5467 0.82004,0.6378 0.72892,2.1867 0,0.729 -0.27334,1.549 -0.27335,0.7289 -0.45558,1.549 -0.18223,0.4555 -0.45558,0.9111 -0.18223,0.3645 -0.45557,1.0023 z m -8.74706,0.4556 q -1.54896,1.9134 -1.54896,3.2801 0,1.2756 0.82004,1.7312 0.91115,0.3644 2.09565,-0.1822 1.27561,-0.6378 2.18676,-2.5513 -1.45784,0 -2.36899,-0.4555 -0.91115,-0.5467 -1.1845,-1.8223 z m 7.74479,-6.0137 q -3.18903,1.0023 -4.73799,3.7358 -0.18223,0.3644 -0.18223,0.7289 0,0.3645 0.45558,0.7289 0.54669,0.5467 1.45784,0.4556 1.00227,-0.091 1.36673,-0.82 0.54669,-0.729 0.91115,-1.6401 0.45558,-0.9112 0.72892,-1.7312 0.18223,-0.1822 0.0911,-0.5467 -0.0911,-0.3645 -0.0911,-0.9112 z"
         style="font-style:normal;font-weight:normal;font-size:91.1152px;line-height:1.25;font-family:Thesignature;-inkscape-font-specification:Thesignature;letter-spacing:0px;word-spacing:0px;fill:#274b75;fill-opacity:1;stroke:none;stroke-width:2.27788"
         id="path1793" />
      <path
         d="m 629.12876,1445.8585 q -0.72892,0.3644 -1.18449,0.5467 -0.36446,0.1822 -0.82004,0.4555 -2.00453,1.1845 -3.73572,2.8246 -1.73119,1.6401 -3.46238,3.2802 -1.82231,1.7311 -3.55349,3.3712 -1.73119,1.6401 -3.46238,3.3713 -0.36446,0.2733 -0.63781,0.6378 -0.36446,0.2733 -0.82003,0.3644 -0.45558,0.1823 -0.91116,0.1823 -0.54669,-0.091 -0.72892,-0.3645 -0.27334,-0.1822 -0.36446,-0.6378 -0.18223,-0.5467 0,-0.9111 0.0911,-0.729 0.36446,-1.2757 0.18223,-0.5466 0.54669,-1.1845 3.37127,-6.2869 6.92476,-12.3916 3.64461,-6.1047 7.74479,-12.0272 1.36673,-2.0046 3.18903,-4.738 1.82231,-2.8246 3.73572,-5.6492 2.00454,-2.8245 3.91796,-5.3758 1.91342,-2.6423 3.55349,-4.3735 0.54669,-0.6378 1.09338,-0.5467 0.63781,0 1.00227,0.3645 0.36446,0.3644 0.45558,1.0023 0.0911,0.5466 -0.45558,0.9111 -2.73346,3.3713 -5.74026,7.5626 -3.0068,4.1001 -6.0136,8.4737 -2.91569,4.2824 -5.64914,8.5648 -2.73346,4.2824 -5.01134,7.927 -1.1845,1.9134 -2.36899,3.8269 -1.09339,1.9134 -2.18677,4.009 0.63781,0 0.91115,-0.2733 0.27335,-0.2734 0.5467,-0.6378 1.36672,-1.2756 2.64234,-2.4601 1.36672,-1.2756 2.64234,-2.4601 2.27788,-2.0046 4.92022,-3.8269 0.27334,-0.2733 0.72892,-0.3644 0.45557,-0.1823 0.91115,-0.3645 2.09565,-0.7289 3.09792,0.1822 1.00226,0.8201 0.82003,3.098 -0.0911,0.7289 -0.27334,1.4578 -0.0911,0.6378 -0.27335,1.3667 -0.18223,0.7289 -0.27334,1.4579 -0.0911,0.7289 -0.27335,1.7312 0.72892,-0.3645 1.36673,-0.5467 0.63781,-0.1823 1.1845,-0.3645 1.27561,-0.7289 2.55122,-1.4578 1.36673,-0.729 2.64234,-1.3668 1.36673,-0.5467 2.09565,-0.4555 0.72892,0.091 0.82004,0.5466 0.18223,0.4556 -0.27335,1.0934 -0.45557,0.6378 -1.36672,1.0934 -1.82231,1.0023 -3.64461,1.9134 -1.82231,0.8201 -3.64461,1.8223 -0.54669,0.2734 -1.54896,0.2734 -2.64234,0.1822 -2.64234,-2.4601 0,-1.0023 0.18223,-2.0046 0.18223,-1.0933 0.36446,-2.1867 0.0911,-0.6378 0.0911,-1.2756 0.0911,-0.729 0.27334,-1.7312 z"
         style="font-style:normal;font-weight:normal;font-size:91.1152px;line-height:1.25;font-family:Thesignature;-inkscape-font-specification:Thesignature;letter-spacing:0px;word-spacing:0px;fill:#274b75;fill-opacity:1;stroke:none;stroke-width:2.27788"
         id="path1795" />
      <path
         d="m 656.00777,1455.6989 q 2.369,-0.9111 5.46692,-2.4601 3.09791,-1.6401 5.46691,-2.9157 1.45784,-0.6378 2.27788,-0.5467 0.91115,0 1.09338,0.4556 0.18223,0.3645 -0.36446,1.0934 -0.45558,0.6378 -1.8223,1.2756 -2.82458,1.2756 -5.74026,2.5512 -2.82457,1.1845 -5.74026,2.369 -2.00453,0.8201 -3.73572,0.1822 -1.64008,-0.82 -1.27562,-3.0979 0.18224,-0.9111 0.5467,-1.5489 0.36446,-0.729 0.54669,-1.549 0.36446,-1.0023 0.6378,-1.8223 0.36446,-0.82 0.27335,-1.2756 0,-0.5467 -0.63781,-0.6378 -0.54669,-0.091 -2.00453,0.3644 -1.54896,0.8201 -3.09792,1.7312 -1.45784,0.8201 -2.91568,1.7312 -1.36673,1.0023 -2.73346,2.0046 -1.27561,1.0022 -2.73346,2.0045 -0.18223,0.1822 -0.36446,0.4556 -0.27334,0.1822 -0.6378,0.3644 -0.45558,0.1823 -0.91116,0.3645 -0.54669,0.1822 -1.09338,-0.3645 -0.45557,-0.4555 -0.36446,-0.9111 0,-0.5467 0.36446,-1.0023 0.72892,-1.0934 1.45785,-2.1868 0.6378,-1.0933 1.36672,-2.1867 0.91116,-1.1845 1.73119,-2.369 0.82004,-1.1845 1.64008,-2.4601 0.45557,-0.5467 0.6378,-1.0934 1.54896,-1.9134 2.27788,-1.1845 0.82004,0.5467 -0.54669,2.6423 -0.63781,1.0023 -1.1845,2.0046 -0.54669,0.9111 -1.27561,1.8223 -0.27335,0.3644 -1.00227,1.1845 -0.72892,0.82 -1.27561,1.5489 -0.54669,0.6378 -0.54669,0.8201 -0.0911,0.1822 1.00227,-0.8201 2.00453,-1.64 4.1913,-3.0979 2.27788,-1.5489 4.55576,-2.6423 0.91115,-0.4556 2.00453,-0.8201 1.1845,-0.4555 2.09565,-0.3644 1.00227,0 1.64007,0.6378 0.72892,0.6378 0.91115,2.0956 0.18224,1.4579 -0.54669,2.7335 -0.72892,1.1845 -1.36672,2.5512 -0.63781,1.7312 -0.36447,2.4601 0.27335,0.6378 2.09565,-0.091 z"
         style="font-style:normal;font-weight:normal;font-size:91.1152px;line-height:1.25;font-family:Thesignature;-inkscape-font-specification:Thesignature;letter-spacing:0px;word-spacing:0px;fill:#274b75;fill-opacity:1;stroke:none;stroke-width:2.27788"
         id="path1797" />
    </g>
  </g>
</svg>
